<svg xmlns="http://www.w3.org/2000/svg" width="300" height="180" viewBox="0 0 300 180">
  <path fill="#0FB2B8" fill-rule="nonzero" d="M252 164C252.552285 164 253 163.552285 253 163 253 162.447715 252.552285 162 252 162 251.447715 162 251 162.447715 251 163 251 163.552285 251.447715 164 252 164zM252 165C250.895431 165 250 164.104569 250 163 250 161.895431 250.895431 161 252 161 253.104569 161 254 161.895431 254 163 254 164.104569 253.104569 165 252 165zM275 78C275.552285 78 276 77.5522847 276 77 276 76.4477153 275.552285 76 275 76 274.447715 76 274 76.4477153 274 77 274 77.5522847 274.447715 78 275 78zM275 79C273.895431 79 273 78.1045695 273 77 273 75.8954305 273.895431 75 275 75 276.104569 75 277 75.8954305 277 77 277 78.1045695 276.104569 79 275 79z"/>
  <polygon fill="#0FB2B8" points="263 150 263 148 264 148 264 150 266 150 266 151 264 151 264 153 263 153 263 151 261 151 261 150"/>
  <path fill="#0FB2B8" fill-rule="nonzero" d="M40,29 C40.5522847,29 41,28.5522847 41,28 C41,27.4477153 40.5522847,27 40,27 C39.4477153,27 39,27.4477153 39,28 C39,28.5522847 39.4477153,29 40,29 Z M40,30 C38.8954305,30 38,29.1045695 38,28 C38,26.8954305 38.8954305,26 40,26 C41.1045695,26 42,26.8954305 42,28 C42,29.1045695 41.1045695,30 40,30 Z"/>
  <path fill="#0FB2B8" fill-rule="nonzero" d="M54.8062676 13.1937324C55.0645775 13.4520422 55.0645775 13.8708451 54.8062676 14.1291549L53.4031338 15.5322887C53.144824 15.7905985 52.7260211 15.7905985 52.4677113 15.5322887 52.2094015 15.2739789 52.2094015 14.855176 52.4677113 14.5968662L53.8708451 13.1937324C54.1291549 12.9354225 54.5479578 12.9354225 54.8062676 13.1937324L54.8062676 13.1937324zM51.5322887 16.4677113C51.7905985 16.7260211 51.7905985 17.144824 51.5322887 17.4031338L50.1291549 18.8062676C49.8708451 19.0645775 49.4520422 19.0645775 49.1937324 18.8062676 48.9354225 18.5479578 48.9354225 18.1291549 49.1937324 17.8708451L50.5968662 16.4677113C50.855176 16.2094015 51.2739789 16.2094015 51.5322887 16.4677113zM54.8062676 18.8062676C54.5479578 19.0645775 54.1291549 19.0645775 53.8708451 18.8062676L52.4677113 17.4031338C52.2094015 17.144824 52.2094015 16.7260211 52.4677113 16.4677113 52.7260211 16.2094015 53.144824 16.2094015 53.4031338 16.4677113L54.8062676 17.8708451C55.0645775 18.1291549 55.0645775 18.5479578 54.8062676 18.8062676zM51.5322887 15.5322887C51.2739789 15.7905985 50.855176 15.7905985 50.5968662 15.5322887L49.1937324 14.1291549C48.9354225 13.8708451 48.9354225 13.4520422 49.1937324 13.1937324 49.4520422 12.9354225 49.8708451 12.9354225 50.1291549 13.1937324L51.5322887 14.5968662C51.7905985 14.855176 51.7905985 15.2739789 51.5322887 15.5322887zM40.8062676 82.1937324C41.0645775 82.4520422 41.0645775 82.8708451 40.8062676 83.1291549L39.4031338 84.5322887C39.144824 84.7905985 38.7260211 84.7905985 38.4677113 84.5322887 38.2094015 84.2739789 38.2094015 83.855176 38.4677113 83.5968662L39.8708451 82.1937324C40.1291549 81.9354225 40.5479578 81.9354225 40.8062676 82.1937324L40.8062676 82.1937324zM37.5322887 85.4677113C37.7905985 85.7260211 37.7905985 86.144824 37.5322887 86.4031338L36.1291549 87.8062676C35.8708451 88.0645775 35.4520422 88.0645775 35.1937324 87.8062676 34.9354225 87.5479578 34.9354225 87.1291549 35.1937324 86.8708451L36.5968662 85.4677113C36.855176 85.2094015 37.2739789 85.2094015 37.5322887 85.4677113zM40.8062676 87.8062676C40.5479578 88.0645775 40.1291549 88.0645775 39.8708451 87.8062676L38.4677113 86.4031338C38.2094015 86.144824 38.2094015 85.7260211 38.4677113 85.4677113 38.7260211 85.2094015 39.144824 85.2094015 39.4031338 85.4677113L40.8062676 86.8708451C41.0645775 87.1291549 41.0645775 87.5479578 40.8062676 87.8062676zM37.5322887 84.5322887C37.2739789 84.7905985 36.855176 84.7905985 36.5968662 84.5322887L35.1937324 83.1291549C34.9354225 82.8708451 34.9354225 82.4520422 35.1937324 82.1937324 35.4520422 81.9354225 35.8708451 81.9354225 36.1291549 82.1937324L37.5322887 83.5968662C37.7905985 83.855176 37.7905985 84.2739789 37.5322887 84.5322887z"/>
  <path fill="#0FB2B8" d="M62,36 L123.000083,36 L147.000083,60 L147.000083,145.000073 C147.000083,146.104643 146.104652,147.000073 145.000083,147.000073 L62,147.000073 C60.8954305,147.000073 60,146.104643 60,145.000073 L60,38 C60,36.8954305 60.8954305,36 62,36 Z"/>
  <path fill="#FFFFFF" d="M123.000083,36 L147.000083,60 L124.000083,60 C123.447798,60 123.000083,59.5522847 123.000083,59 L123.000083,36 Z" opacity=".3"/>
  <path fill="#0B8085" d="M155.914522,46.7686887 L180.036259,44.8542652 L198.37555,49.3987659 L216,42 L240,66 L228,78.0083318 L244,95.5647475 L234.282965,117.643786 L239.327432,135.605237 C239.626095,136.668663 239.006132,137.772854 237.942706,138.071517 C237.803685,138.110561 237.660844,138.134434 237.516682,138.142719 L217.055457,139.318652 L203.509438,136.097159 L190.336534,140.854222 L155.626248,142.849066 C154.523498,142.912443 153.578166,142.069864 153.51479,140.967114 C153.50442,140.786676 153.518556,140.605664 153.556812,140.429024 L159.658096,112.257468 L156.999917,94.7192488 L162.999917,67.6966732 L154.271939,49.6325117 C153.7914,48.6379483 154.208099,47.4421418 155.202663,46.9616031 C155.425938,46.8537242 155.667328,46.7883073 155.914522,46.7686887 Z"/>
  <path fill="#FFFFFF" fill-rule="nonzero" d="M70.525,137 L70.525,134.18 L74.785,134.18 L74.785,121.64 L71.275,121.64 L71.275,119.48 C73.165,119.12 74.485,118.64 75.685,117.92 L78.265,117.92 L78.265,134.18 L82.015,134.18 L82.015,137 L70.525,137 Z"/>
  <path fill="#FFFFFF" fill-rule="nonzero" d="M162.445,133 L162.445,130.99 C167.755,125.86 174.085,125.5 174.085,122.59 C174.085,120.58 172.975,119.29 170.935,119.29 C169.465,119.29 168.235,120.28 167.215,121.42 L165.295,119.5 C167.035,117.64 168.775,117.56 171.385,117.56 C175.045,117.56 176.415,118.87 176.415,122.41 C176.415,125.8 171.265,126.28 167.485,130.27 C168.475,130.18 169.735,130.06 170.665,130.06 L175.345,130.06 L175.345,133 L162.445,133 Z"/>
  <path fill="#FFFFFF" d="M216,42 L240,66 L217,66 C216.447715,66 216,65.5522847 216,65 L216,42 Z" opacity=".3"/>
  <polygon fill="#09676B" points="163 67.697 228 78.008 157 94.719"/>
  <polygon fill="#09676B" points="234.283 117.644 159.658 112.257 244 95.565"/>
  <circle cx="240" cy="107" r="27" fill="#FFFFFF"/>
  <path fill="#FF0040" fill-rule="nonzero" d="M240,128 C228.40202,128 219,118.59798 219,107 C219,95.4020203 228.40202,86 240,86 C251.59798,86 261,95.4020203 261,107 C261,118.59798 251.59798,128 240,128 Z"/>
  <path fill="#FFFFFF" fill-rule="nonzero" d="M238,100 L238,98 L243,98 L243,100 L247,100 L247,101 L234,101 L234,100 L238,100 Z M234,102 L247,102 L245,116 L236,116 L234,102 Z M236.857919,115 L244.142081,115 L245.834389,103 L235.165611,103 L236.857919,115 Z M240,104 L241,104 L241,114 L240,114 L240,104 Z M243,104 L244,104 L243,114 L242,114 L243,104 Z M237,104 L238,104 L239,114 L238,114 L237,104 Z"/>
  <polygon fill="#FF0040" points="219.564 32.667 221.376 33.513 166.436 151.333 164.624 150.487"/>
  <polygon fill="#FF0040" points="166.436 32.667 221.376 150.487 219.564 151.333 164.624 33.513"/>
  <polygon fill="#09676B" points="180.036 44.854 194.97 61.908 198.756 49.572"/>
  <polygon fill="#09676B" points="190.337 140.854 194.953 127.212 203.509 136.097"/>
</svg>
