<svg xmlns="http://www.w3.org/2000/svg" fill="none" viewBox="0 0 400 320">
  <g clip-path="url(#a)">
    <path fill="#FFB700" fill-rule="evenodd" d="M159.364 98.364a4.537 4.537 0 0 0 4.536 4.539 4.537 4.537 0 0 0 4.536-4.539 4.538 4.538 0 0 0-4.536-4.539 4.538 4.538 0 0 0-4.536 4.54Zm6.894 0a2.36 2.36 0 1 1-4.718.001 2.36 2.36 0 0 1 4.718 0Z" clip-rule="evenodd"/>
    <path fill="#FFB700" d="M216.164 67.878v4.54h4.536v2.269h-4.536v4.539h-2.268v-4.54h-4.536v-2.269h4.536v-4.539h2.268Z"/>
    <path fill="#87AFFF" d="M210.468 129.899v4.539h4.536v2.269h-4.536v4.539H208.2v-4.539h-4.536v-2.269h4.536v-4.539h2.268Zm-29.87-73.939a1.163 1.163 0 0 1 0-1.66 1.201 1.201 0 0 1 1.683 0l2.504 2.47a1.165 1.165 0 0 1 0 1.661 1.202 1.202 0 0 1-1.684 0l-2.503-2.47Zm5.862 5.784a1.163 1.163 0 0 1 0-1.66 1.201 1.201 0 0 1 1.683 0l2.504 2.47a1.165 1.165 0 0 1 0 1.66 1.203 1.203 0 0 1-1.684 0l-2.503-2.47Zm-5.862 2.471a1.201 1.201 0 0 0 1.683 0l2.504-2.47a1.165 1.165 0 0 0 0-1.661 1.202 1.202 0 0 0-1.684 0l-2.503 2.47a1.163 1.163 0 0 0 0 1.66Zm7.545-5.784a1.201 1.201 0 0 1-1.683 0 1.163 1.163 0 0 1 0-1.66l2.503-2.471a1.203 1.203 0 0 1 1.684 0 1.165 1.165 0 0 1 0 1.66l-2.504 2.471Z"/>
    <ellipse cx="95.413" cy="252.614" fill="#769EEB" rx="70.614" ry="12.504"/>
    <path fill="#097376" d="M192.416 157.567a1.24 1.24 0 0 0-2.06.606l-5.37 22.154a.596.596 0 0 1-.721.439l-2.674-.648c-.659-.16-1.358.209-1.538.864a1.24 1.24 0 0 0 .903 1.534l4.487 1.087c.167.041.342.056.512.027.51-.086.894-.462 1.009-.934l5.802-23.939a1.239 1.239 0 0 0-.35-1.19Z"/>
    <path fill="#A18FFE" d="m196.171 119.424-1.757-10.473c-.232-1.347-1.961-1.767-2.784-.676l-1.32 1.75-5.236 6.666 6.734 2 4.363.733Z"/>
    <path fill="#493A91" d="m187.79 154.262 8.345-34.432a.833.833 0 0 0-.392-.922c-.995-.571-3.167-1.777-4.818-2.414-1.709-.66-4.31-.303-5.404-.106a.803.803 0 0 0-.636.611l-8.371 34.53 4.72 3.369 6.556-.636Z"/>
    <path fill="#9FE6E8" d="M177.21 187.464c.449-.47.784-1.062.949-1.741l.89-3.67-3.655-1.788-3.806-.021-.889 3.673a3.835 3.835 0 0 0 2.825 4.632 3.836 3.836 0 0 0 3.686-1.085Z"/>
    <path fill="#0FC0C5" d="m180.958 182.514 6.848-28.252-11.276-2.733-6.55 27.028a1.26 1.26 0 0 0 .927 1.52l10.051 2.437Z"/>
    <path stroke="#CFF2F3" stroke-linecap="round" stroke-width="2.543" d="m173.48 178.295 4.186-17.536m1.283-5.93-.631 2.708"/>
    <path fill="#000" stroke="#000" stroke-width=".709" d="M165.612 173.653a5.837 5.837 0 1 1 11.663.505 5.837 5.837 0 0 1-11.663-.505Z"/>
    <path stroke="#000" stroke-width="3.544" d="M134.203 209.393c10.996-7.256 24.598-15.151 35.076-31.697"/>
    <path fill="#000" stroke="#000" stroke-width=".709" d="M36.349 238.792a5.836 5.836 0 1 1-11.201 3.283 5.836 5.836 0 0 1 11.201-3.283Z"/>
    <path stroke="#000" stroke-width="3.544" d="M54.564 194.837c-8.07 10.413-18.402 22.27-22.987 41.311"/>
    <path fill="#fff" stroke="#000" stroke-width="3.544" d="m31.887 133.192 20.786-4.194a486.99 486.99 0 0 0-.403-2.127c-.442-2.307-1.042-5.384-1.646-8.464a6306.908 6306.908 0 0 0-1.828-9.273 49.306 49.306 0 0 0-2.352 2.671c-3.044 3.685-7.758 10.162-14.557 21.387Zm-.99 3.816c2.96 6.51 5.365 15.399 7.327 25.307 2.19 11.058 3.855 23.53 5.103 35.671 2.495 24.279 3.333 47.356 3.339 55.389a.87.87 0 0 0 .257.642.646.646 0 0 0 .54.172c8.148-.943 32.304-4.216 54.607-8.349 11.158-2.068 21.802-4.342 29.735-6.637 3.975-1.15 7.198-2.285 9.446-3.373 1.128-.545 1.938-1.045 2.461-1.481.501-.417.574-.637.577-.637l-.002.01c5.542-30.891 2.409-64.541-3.752-90.617-3.08-13.035-6.9-24.107-10.727-31.948-1.916-3.928-3.802-6.979-5.553-9.052-1.757-2.08-3.125-2.878-4.022-2.995-7.614 1.267-25.115 3.363-40.683 5.14a4786.417 4786.417 0 0 1-27.503 3.052l.386 1.951c.457 2.31 1.064 5.391 1.669 8.472.604 3.081 1.206 6.164 1.65 8.48.22 1.156.404 2.126.528 2.809.062.34.111.618.144.815.016.095.03.19.04.27a1.944 1.944 0 0 1-.08.882 3.147 3.147 0 0 1-.313.55c-.181.184-.652.463-1.013.584l.003.017-24.163 4.876Z"/>
    <path fill="#fff" d="M120.291 97.335a.994.994 0 0 0-.26.013c-15.02 2.511-70.099 8.4-70.099 8.4s-5.736 3.151-21.625 29.976c13.247 25.586 16.575 101.714 16.587 117.652 0 1.54 1.243 2.751 2.773 2.574 16.362-1.894 96.786-13.114 98.365-21.915 11.19-62.384-12.669-135.613-25.741-136.7Z"/>
    <path fill="#000" fill-rule="evenodd" d="M52.673 128.999c-.11-.588-.246-1.308-.403-2.127a2117.21 2117.21 0 0 0-1.646-8.464c-.493-2.513-.988-5.027-1.402-7.121a54.563 54.563 0 0 0-1.411 1.647c-2.847 3.447-7.245 9.462-13.558 19.782l18.42-3.717Zm-24.366 6.725c.415-.702.823-1.386 1.225-2.056 10.511-17.517 16.323-24.202 18.85-26.629 1.07-1.027 1.55-1.291 1.55-1.291l1.77-.19c9.539-1.029 54.913-5.967 68.329-8.21a.994.994 0 0 1 .26-.013c13.072 1.087 36.931 74.316 25.741 136.7-1.579 8.801-82.003 20.021-98.365 21.915-1.53.177-2.772-1.034-2.773-2.574-.011-15.61-3.204-88.954-15.781-116.007a42.977 42.977 0 0 0-.806-1.645Zm4.372.925c2.972 6.672 5.353 15.572 7.284 25.322 2.204 11.131 3.876 23.662 5.127 35.835 2.397 23.326 3.27 45.551 3.343 54.484 9.079-1.092 32.045-4.251 53.314-8.192 11.142-2.065 21.718-4.327 29.565-6.597 3.943-1.14 7.054-2.243 9.167-3.265 1.065-.516 1.732-.942 2.099-1.249l.047-.039c5.374-30.464 2.276-63.655-3.815-89.435-3.059-12.949-6.842-23.889-10.594-31.579-1.883-3.858-3.695-6.766-5.315-8.685-1.416-1.677-2.341-2.191-2.724-2.333-7.842 1.281-25.107 3.347-40.426 5.095a4666.915 4666.915 0 0 1-27.042 3.003l-.317.034.041.206c.457 2.31 1.065 5.39 1.669 8.471a2116.56 2116.56 0 0 1 1.65 8.48c.22 1.157.404 2.127.529 2.809.062.34.11.618.143.815.016.096.03.191.04.27.005.033.013.102.018.179v.002a1.852 1.852 0 0 1-.098.701 3.152 3.152 0 0 1-.313.551c-.181.183-.652.463-1.013.584l.003.017-22.382 4.516Zm110.113 96.135s-.006.009-.02.024a.143.143 0 0 1 .02-.024Z" clip-rule="evenodd"/>
    <path fill="#000" stroke="#000" stroke-linecap="round" stroke-width="1.418" d="M96.64 201.001c2.163 10.952 20.036 7.299 18.772-3.73-.126-1.098-1.23-1.748-2.313-1.523l-14.902 3.092c-1.017.211-1.758 1.142-1.557 2.161Z"/>
    <circle r="21.694" fill="#B3CCFF" stroke="#000" stroke-width="3.544" transform="scale(-1 1) rotate(9.616 -1098.222 -687.77)"/>
    <circle r="21.694" fill="#B3CCFF" stroke="#000" stroke-width="3.544" transform="scale(-1 1) rotate(9.616 -1126.414 -355.175)"/>
    <path stroke="#000" stroke-width="3.544" d="m108.7 179.268-11.506 1.949"/>
    <path fill="#000" fill-rule="evenodd" d="M125.16 180.774c2.475-.403 3.357-3.53 2.827-6.791-.53-3.261-2.356-5.948-4.832-5.546-2.476.403-3.357 3.53-2.827 6.791.53 3.261 2.356 5.948 4.832 5.546Zm-39.22 6.03c2.475-.402 3.356-3.529 2.827-6.79-.53-3.261-2.356-5.948-4.832-5.546-2.476.402-3.357 3.53-2.827 6.791.53 3.26 2.356 5.948 4.832 5.545Z" clip-rule="evenodd"/>
    <path fill="#C9C0FA" d="M239.521 212.749V73.117a4.606 4.606 0 0 1 4.606-4.605h91.284c1.221 0 2.392.485 3.256 1.349l21.155 21.155a4.604 4.604 0 0 1 1.349 3.256V212.75a4.605 4.605 0 0 1-4.605 4.605H244.127a4.606 4.606 0 0 1-4.606-4.605Z"/>
    <path fill="#9C8BF0" d="M337.494 89.13V68.511c1.866.636 23.725 22.738 23.678 23.688h-20.608a3.07 3.07 0 0 1-3.07-3.07Zm-77.154 51.233a3.118 3.118 0 0 1 3.118-3.118h73.777a3.118 3.118 0 0 1 0 6.236h-73.777a3.118 3.118 0 0 1-3.118-3.118Zm.029-32.88a3.118 3.118 0 0 1 3.118-3.118h73.777a3.118 3.118 0 0 1 0 6.236h-73.777a3.118 3.118 0 0 1-3.118-3.118Zm-.032 49.325a3.118 3.118 0 0 1 3.118-3.118h73.777a3.118 3.118 0 0 1 0 6.236h-73.777a3.118 3.118 0 0 1-3.118-3.118Zm.031-32.881a3.118 3.118 0 0 1 3.118-3.117h73.777a3.118 3.118 0 0 1 0 6.235h-73.777a3.118 3.118 0 0 1-3.118-3.118Zm-.031 49.321a3.118 3.118 0 0 1 3.118-3.118h73.727a3.118 3.118 0 0 1 0 6.236h-73.727a3.118 3.118 0 0 1-3.118-3.118Zm-.012 16.437a3.118 3.118 0 0 1 3.118-3.118h51.816a3.118 3.118 0 0 1 0 6.236h-51.816a3.118 3.118 0 0 1-3.118-3.118Z"/>
    <rect width="65.282" height="37.487" x="218.853" y="80.52" fill="#FF7761" rx="3.739"/>
    <path fill="#fff" d="M230.049 108.925V91.337h6.043c.971 0 1.879.099 2.724.296.846.18 1.583.495 2.212.945.63.431 1.124 1.016 1.484 1.753.378.72.567 1.61.567 2.67 0 1.026-.189 1.916-.567 2.671a5.053 5.053 0 0 1-1.484 1.862 6.377 6.377 0 0 1-2.185 1.079 9.667 9.667 0 0 1-2.643.351h-2.186v5.961h-3.965Zm3.965-9.118h1.943c2.158 0 3.237-.935 3.237-2.805 0-.917-.288-1.565-.863-1.943-.576-.377-1.403-.566-2.482-.566h-1.835v5.314Zm12.105 9.118V91.337h4.964c1.349 0 2.563.17 3.642.512 1.079.342 2.005.872 2.778 1.592.774.701 1.367 1.6 1.781 2.697.413 1.097.62 2.401.62 3.912 0 1.511-.207 2.824-.62 3.939-.414 1.115-.998 2.041-1.754 2.778-.755.72-1.663 1.259-2.724 1.619-1.044.36-2.213.539-3.507.539h-5.18Zm3.966-3.21h.755c.755 0 1.439-.099 2.05-.297a3.84 3.84 0 0 0 1.565-.944c.431-.449.764-1.034.998-1.753.252-.72.378-1.61.378-2.671 0-1.043-.126-1.915-.378-2.617-.234-.719-.567-1.286-.998-1.7a3.617 3.617 0 0 0-1.565-.916 7.256 7.256 0 0 0-2.05-.27h-.755v11.168Zm13.158 3.21V91.337h11.087v3.345h-7.122v4.073h6.097v3.345h-6.097v6.825h-3.965Z"/>
    <ellipse cx="296.694" cy="251.091" fill="#769EEB" rx="40.503" ry="7.278"/>
    <path stroke="#FFB700" stroke-linecap="round" stroke-width="7.892" d="m373.757 71.293 14.965-6.45m-10.831 28.013 15.143 6.02m-31.379-43.682 6.021-15.143"/>
  </g>
  <defs>
    <clipPath id="a">
      <path fill="#fff" d="M0 0h400v320H0z"/>
    </clipPath>
  </defs>
</svg>
